%TF.GenerationSoftware,KiCad,Pcbnew,8.0.2*%
%TF.CreationDate,2025-05-31T21:51:42-07:00*%
%TF.ProjectId,SI60,53493630-2e6b-4696-9361-645f70636258,rev?*%
%TF.SameCoordinates,Original*%
%TF.FileFunction,Legend,Top*%
%TF.FilePolarity,Positive*%
%FSLAX46Y46*%
G04 Gerber Fmt 4.6, Leading zero omitted, Abs format (unit mm)*
G04 Created by KiCad (PCBNEW 8.0.2) date 2025-05-31 21:51:42*
%MOMM*%
%LPD*%
G01*
G04 APERTURE LIST*
%ADD10C,0.200000*%
%ADD11C,0.150000*%
%ADD12O,7.000240X2.499360*%
%ADD13C,1.400000*%
%ADD14O,5.001260X2.499360*%
%ADD15C,1.700000*%
%ADD16O,1.700000X1.700000*%
%ADD17C,6.000000*%
%ADD18C,0.650000*%
%ADD19O,1.000000X1.600000*%
%ADD20O,1.000000X2.100000*%
G04 APERTURE END LIST*
D10*
X76445600Y-80619850D02*
X76502742Y-80448422D01*
X76502742Y-80448422D02*
X76502742Y-80162707D01*
X76502742Y-80162707D02*
X76445600Y-80048422D01*
X76445600Y-80048422D02*
X76388457Y-79991279D01*
X76388457Y-79991279D02*
X76274171Y-79934136D01*
X76274171Y-79934136D02*
X76159885Y-79934136D01*
X76159885Y-79934136D02*
X76045600Y-79991279D01*
X76045600Y-79991279D02*
X75988457Y-80048422D01*
X75988457Y-80048422D02*
X75931314Y-80162707D01*
X75931314Y-80162707D02*
X75874171Y-80391279D01*
X75874171Y-80391279D02*
X75817028Y-80505564D01*
X75817028Y-80505564D02*
X75759885Y-80562707D01*
X75759885Y-80562707D02*
X75645600Y-80619850D01*
X75645600Y-80619850D02*
X75531314Y-80619850D01*
X75531314Y-80619850D02*
X75417028Y-80562707D01*
X75417028Y-80562707D02*
X75359885Y-80505564D01*
X75359885Y-80505564D02*
X75302742Y-80391279D01*
X75302742Y-80391279D02*
X75302742Y-80105564D01*
X75302742Y-80105564D02*
X75359885Y-79934136D01*
X75302742Y-79534136D02*
X76502742Y-79248422D01*
X76502742Y-79248422D02*
X75645600Y-79019850D01*
X75645600Y-79019850D02*
X76502742Y-78791279D01*
X76502742Y-78791279D02*
X75302742Y-78505565D01*
X76388457Y-77362707D02*
X76445600Y-77419850D01*
X76445600Y-77419850D02*
X76502742Y-77591278D01*
X76502742Y-77591278D02*
X76502742Y-77705564D01*
X76502742Y-77705564D02*
X76445600Y-77876993D01*
X76445600Y-77876993D02*
X76331314Y-77991278D01*
X76331314Y-77991278D02*
X76217028Y-78048421D01*
X76217028Y-78048421D02*
X75988457Y-78105564D01*
X75988457Y-78105564D02*
X75817028Y-78105564D01*
X75817028Y-78105564D02*
X75588457Y-78048421D01*
X75588457Y-78048421D02*
X75474171Y-77991278D01*
X75474171Y-77991278D02*
X75359885Y-77876993D01*
X75359885Y-77876993D02*
X75302742Y-77705564D01*
X75302742Y-77705564D02*
X75302742Y-77591278D01*
X75302742Y-77591278D02*
X75359885Y-77419850D01*
X75359885Y-77419850D02*
X75417028Y-77362707D01*
X79102742Y-81526993D02*
X78531314Y-81926993D01*
X79102742Y-82212707D02*
X77902742Y-82212707D01*
X77902742Y-82212707D02*
X77902742Y-81755564D01*
X77902742Y-81755564D02*
X77959885Y-81641279D01*
X77959885Y-81641279D02*
X78017028Y-81584136D01*
X78017028Y-81584136D02*
X78131314Y-81526993D01*
X78131314Y-81526993D02*
X78302742Y-81526993D01*
X78302742Y-81526993D02*
X78417028Y-81584136D01*
X78417028Y-81584136D02*
X78474171Y-81641279D01*
X78474171Y-81641279D02*
X78531314Y-81755564D01*
X78531314Y-81755564D02*
X78531314Y-82212707D01*
X78474171Y-81012707D02*
X78474171Y-80612707D01*
X79102742Y-80441279D02*
X79102742Y-81012707D01*
X79102742Y-81012707D02*
X77902742Y-81012707D01*
X77902742Y-81012707D02*
X77902742Y-80441279D01*
X79045600Y-79984136D02*
X79102742Y-79812708D01*
X79102742Y-79812708D02*
X79102742Y-79526993D01*
X79102742Y-79526993D02*
X79045600Y-79412708D01*
X79045600Y-79412708D02*
X78988457Y-79355565D01*
X78988457Y-79355565D02*
X78874171Y-79298422D01*
X78874171Y-79298422D02*
X78759885Y-79298422D01*
X78759885Y-79298422D02*
X78645600Y-79355565D01*
X78645600Y-79355565D02*
X78588457Y-79412708D01*
X78588457Y-79412708D02*
X78531314Y-79526993D01*
X78531314Y-79526993D02*
X78474171Y-79755565D01*
X78474171Y-79755565D02*
X78417028Y-79869850D01*
X78417028Y-79869850D02*
X78359885Y-79926993D01*
X78359885Y-79926993D02*
X78245600Y-79984136D01*
X78245600Y-79984136D02*
X78131314Y-79984136D01*
X78131314Y-79984136D02*
X78017028Y-79926993D01*
X78017028Y-79926993D02*
X77959885Y-79869850D01*
X77959885Y-79869850D02*
X77902742Y-79755565D01*
X77902742Y-79755565D02*
X77902742Y-79469850D01*
X77902742Y-79469850D02*
X77959885Y-79298422D01*
X78474171Y-78784136D02*
X78474171Y-78384136D01*
X79102742Y-78212708D02*
X79102742Y-78784136D01*
X79102742Y-78784136D02*
X77902742Y-78784136D01*
X77902742Y-78784136D02*
X77902742Y-78212708D01*
X77902742Y-77869851D02*
X77902742Y-77184137D01*
X79102742Y-77526994D02*
X77902742Y-77526994D01*
X73845600Y-80569850D02*
X73902742Y-80398422D01*
X73902742Y-80398422D02*
X73902742Y-80112707D01*
X73902742Y-80112707D02*
X73845600Y-79998422D01*
X73845600Y-79998422D02*
X73788457Y-79941279D01*
X73788457Y-79941279D02*
X73674171Y-79884136D01*
X73674171Y-79884136D02*
X73559885Y-79884136D01*
X73559885Y-79884136D02*
X73445600Y-79941279D01*
X73445600Y-79941279D02*
X73388457Y-79998422D01*
X73388457Y-79998422D02*
X73331314Y-80112707D01*
X73331314Y-80112707D02*
X73274171Y-80341279D01*
X73274171Y-80341279D02*
X73217028Y-80455564D01*
X73217028Y-80455564D02*
X73159885Y-80512707D01*
X73159885Y-80512707D02*
X73045600Y-80569850D01*
X73045600Y-80569850D02*
X72931314Y-80569850D01*
X72931314Y-80569850D02*
X72817028Y-80512707D01*
X72817028Y-80512707D02*
X72759885Y-80455564D01*
X72759885Y-80455564D02*
X72702742Y-80341279D01*
X72702742Y-80341279D02*
X72702742Y-80055564D01*
X72702742Y-80055564D02*
X72759885Y-79884136D01*
X72702742Y-79484136D02*
X73902742Y-79198422D01*
X73902742Y-79198422D02*
X73045600Y-78969850D01*
X73045600Y-78969850D02*
X73902742Y-78741279D01*
X73902742Y-78741279D02*
X72702742Y-78455565D01*
X73902742Y-77998421D02*
X72702742Y-77998421D01*
X72702742Y-77998421D02*
X72702742Y-77712707D01*
X72702742Y-77712707D02*
X72759885Y-77541278D01*
X72759885Y-77541278D02*
X72874171Y-77426993D01*
X72874171Y-77426993D02*
X72988457Y-77369850D01*
X72988457Y-77369850D02*
X73217028Y-77312707D01*
X73217028Y-77312707D02*
X73388457Y-77312707D01*
X73388457Y-77312707D02*
X73617028Y-77369850D01*
X73617028Y-77369850D02*
X73731314Y-77426993D01*
X73731314Y-77426993D02*
X73845600Y-77541278D01*
X73845600Y-77541278D02*
X73902742Y-77712707D01*
X73902742Y-77712707D02*
X73902742Y-77998421D01*
X70152742Y-80176993D02*
X70152742Y-79434136D01*
X70152742Y-79434136D02*
X70609885Y-79834136D01*
X70609885Y-79834136D02*
X70609885Y-79662707D01*
X70609885Y-79662707D02*
X70667028Y-79548422D01*
X70667028Y-79548422D02*
X70724171Y-79491279D01*
X70724171Y-79491279D02*
X70838457Y-79434136D01*
X70838457Y-79434136D02*
X71124171Y-79434136D01*
X71124171Y-79434136D02*
X71238457Y-79491279D01*
X71238457Y-79491279D02*
X71295600Y-79548422D01*
X71295600Y-79548422D02*
X71352742Y-79662707D01*
X71352742Y-79662707D02*
X71352742Y-80005564D01*
X71352742Y-80005564D02*
X71295600Y-80119850D01*
X71295600Y-80119850D02*
X71238457Y-80176993D01*
X70552742Y-79034136D02*
X71352742Y-78748422D01*
X71352742Y-78748422D02*
X70552742Y-78462707D01*
X70152742Y-78119850D02*
X70152742Y-77376993D01*
X70152742Y-77376993D02*
X70609885Y-77776993D01*
X70609885Y-77776993D02*
X70609885Y-77605564D01*
X70609885Y-77605564D02*
X70667028Y-77491279D01*
X70667028Y-77491279D02*
X70724171Y-77434136D01*
X70724171Y-77434136D02*
X70838457Y-77376993D01*
X70838457Y-77376993D02*
X71124171Y-77376993D01*
X71124171Y-77376993D02*
X71238457Y-77434136D01*
X71238457Y-77434136D02*
X71295600Y-77491279D01*
X71295600Y-77491279D02*
X71352742Y-77605564D01*
X71352742Y-77605564D02*
X71352742Y-77948421D01*
X71352742Y-77948421D02*
X71295600Y-78062707D01*
X71295600Y-78062707D02*
X71238457Y-78119850D01*
X80459885Y-79784136D02*
X80402742Y-79898422D01*
X80402742Y-79898422D02*
X80402742Y-80069850D01*
X80402742Y-80069850D02*
X80459885Y-80241279D01*
X80459885Y-80241279D02*
X80574171Y-80355564D01*
X80574171Y-80355564D02*
X80688457Y-80412707D01*
X80688457Y-80412707D02*
X80917028Y-80469850D01*
X80917028Y-80469850D02*
X81088457Y-80469850D01*
X81088457Y-80469850D02*
X81317028Y-80412707D01*
X81317028Y-80412707D02*
X81431314Y-80355564D01*
X81431314Y-80355564D02*
X81545600Y-80241279D01*
X81545600Y-80241279D02*
X81602742Y-80069850D01*
X81602742Y-80069850D02*
X81602742Y-79955564D01*
X81602742Y-79955564D02*
X81545600Y-79784136D01*
X81545600Y-79784136D02*
X81488457Y-79726993D01*
X81488457Y-79726993D02*
X81088457Y-79726993D01*
X81088457Y-79726993D02*
X81088457Y-79955564D01*
X81602742Y-79212707D02*
X80402742Y-79212707D01*
X80402742Y-79212707D02*
X81602742Y-78526993D01*
X81602742Y-78526993D02*
X80402742Y-78526993D01*
X81602742Y-77955564D02*
X80402742Y-77955564D01*
X80402742Y-77955564D02*
X80402742Y-77669850D01*
X80402742Y-77669850D02*
X80459885Y-77498421D01*
X80459885Y-77498421D02*
X80574171Y-77384136D01*
X80574171Y-77384136D02*
X80688457Y-77326993D01*
X80688457Y-77326993D02*
X80917028Y-77269850D01*
X80917028Y-77269850D02*
X81088457Y-77269850D01*
X81088457Y-77269850D02*
X81317028Y-77326993D01*
X81317028Y-77326993D02*
X81431314Y-77384136D01*
X81431314Y-77384136D02*
X81545600Y-77498421D01*
X81545600Y-77498421D02*
X81602742Y-77669850D01*
X81602742Y-77669850D02*
X81602742Y-77955564D01*
X103963006Y-73292742D02*
X104705863Y-73292742D01*
X104705863Y-73292742D02*
X104305863Y-73749885D01*
X104305863Y-73749885D02*
X104477292Y-73749885D01*
X104477292Y-73749885D02*
X104591578Y-73807028D01*
X104591578Y-73807028D02*
X104648720Y-73864171D01*
X104648720Y-73864171D02*
X104705863Y-73978457D01*
X104705863Y-73978457D02*
X104705863Y-74264171D01*
X104705863Y-74264171D02*
X104648720Y-74378457D01*
X104648720Y-74378457D02*
X104591578Y-74435600D01*
X104591578Y-74435600D02*
X104477292Y-74492742D01*
X104477292Y-74492742D02*
X104134435Y-74492742D01*
X104134435Y-74492742D02*
X104020149Y-74435600D01*
X104020149Y-74435600D02*
X103963006Y-74378457D01*
X105105863Y-73692742D02*
X105391577Y-74492742D01*
X105391577Y-74492742D02*
X105677292Y-73692742D01*
X106020149Y-73292742D02*
X106763006Y-73292742D01*
X106763006Y-73292742D02*
X106363006Y-73749885D01*
X106363006Y-73749885D02*
X106534435Y-73749885D01*
X106534435Y-73749885D02*
X106648721Y-73807028D01*
X106648721Y-73807028D02*
X106705863Y-73864171D01*
X106705863Y-73864171D02*
X106763006Y-73978457D01*
X106763006Y-73978457D02*
X106763006Y-74264171D01*
X106763006Y-74264171D02*
X106705863Y-74378457D01*
X106705863Y-74378457D02*
X106648721Y-74435600D01*
X106648721Y-74435600D02*
X106534435Y-74492742D01*
X106534435Y-74492742D02*
X106191578Y-74492742D01*
X106191578Y-74492742D02*
X106077292Y-74435600D01*
X106077292Y-74435600D02*
X106020149Y-74378457D01*
X102027292Y-76614171D02*
X102198720Y-76671314D01*
X102198720Y-76671314D02*
X102255863Y-76728457D01*
X102255863Y-76728457D02*
X102313006Y-76842742D01*
X102313006Y-76842742D02*
X102313006Y-77014171D01*
X102313006Y-77014171D02*
X102255863Y-77128457D01*
X102255863Y-77128457D02*
X102198720Y-77185600D01*
X102198720Y-77185600D02*
X102084435Y-77242742D01*
X102084435Y-77242742D02*
X101627292Y-77242742D01*
X101627292Y-77242742D02*
X101627292Y-76042742D01*
X101627292Y-76042742D02*
X102027292Y-76042742D01*
X102027292Y-76042742D02*
X102141578Y-76099885D01*
X102141578Y-76099885D02*
X102198720Y-76157028D01*
X102198720Y-76157028D02*
X102255863Y-76271314D01*
X102255863Y-76271314D02*
X102255863Y-76385600D01*
X102255863Y-76385600D02*
X102198720Y-76499885D01*
X102198720Y-76499885D02*
X102141578Y-76557028D01*
X102141578Y-76557028D02*
X102027292Y-76614171D01*
X102027292Y-76614171D02*
X101627292Y-76614171D01*
X103055863Y-76042742D02*
X103284435Y-76042742D01*
X103284435Y-76042742D02*
X103398720Y-76099885D01*
X103398720Y-76099885D02*
X103513006Y-76214171D01*
X103513006Y-76214171D02*
X103570149Y-76442742D01*
X103570149Y-76442742D02*
X103570149Y-76842742D01*
X103570149Y-76842742D02*
X103513006Y-77071314D01*
X103513006Y-77071314D02*
X103398720Y-77185600D01*
X103398720Y-77185600D02*
X103284435Y-77242742D01*
X103284435Y-77242742D02*
X103055863Y-77242742D01*
X103055863Y-77242742D02*
X102941578Y-77185600D01*
X102941578Y-77185600D02*
X102827292Y-77071314D01*
X102827292Y-77071314D02*
X102770149Y-76842742D01*
X102770149Y-76842742D02*
X102770149Y-76442742D01*
X102770149Y-76442742D02*
X102827292Y-76214171D01*
X102827292Y-76214171D02*
X102941578Y-76099885D01*
X102941578Y-76099885D02*
X103055863Y-76042742D01*
X104313006Y-76042742D02*
X104541578Y-76042742D01*
X104541578Y-76042742D02*
X104655863Y-76099885D01*
X104655863Y-76099885D02*
X104770149Y-76214171D01*
X104770149Y-76214171D02*
X104827292Y-76442742D01*
X104827292Y-76442742D02*
X104827292Y-76842742D01*
X104827292Y-76842742D02*
X104770149Y-77071314D01*
X104770149Y-77071314D02*
X104655863Y-77185600D01*
X104655863Y-77185600D02*
X104541578Y-77242742D01*
X104541578Y-77242742D02*
X104313006Y-77242742D01*
X104313006Y-77242742D02*
X104198721Y-77185600D01*
X104198721Y-77185600D02*
X104084435Y-77071314D01*
X104084435Y-77071314D02*
X104027292Y-76842742D01*
X104027292Y-76842742D02*
X104027292Y-76442742D01*
X104027292Y-76442742D02*
X104084435Y-76214171D01*
X104084435Y-76214171D02*
X104198721Y-76099885D01*
X104198721Y-76099885D02*
X104313006Y-76042742D01*
X105170149Y-76042742D02*
X105855864Y-76042742D01*
X105513006Y-77242742D02*
X105513006Y-76042742D01*
X106484435Y-76042742D02*
X106598721Y-76042742D01*
X106598721Y-76042742D02*
X106713007Y-76099885D01*
X106713007Y-76099885D02*
X106770150Y-76157028D01*
X106770150Y-76157028D02*
X106827292Y-76271314D01*
X106827292Y-76271314D02*
X106884435Y-76499885D01*
X106884435Y-76499885D02*
X106884435Y-76785600D01*
X106884435Y-76785600D02*
X106827292Y-77014171D01*
X106827292Y-77014171D02*
X106770150Y-77128457D01*
X106770150Y-77128457D02*
X106713007Y-77185600D01*
X106713007Y-77185600D02*
X106598721Y-77242742D01*
X106598721Y-77242742D02*
X106484435Y-77242742D01*
X106484435Y-77242742D02*
X106370150Y-77185600D01*
X106370150Y-77185600D02*
X106313007Y-77128457D01*
X106313007Y-77128457D02*
X106255864Y-77014171D01*
X106255864Y-77014171D02*
X106198721Y-76785600D01*
X106198721Y-76785600D02*
X106198721Y-76499885D01*
X106198721Y-76499885D02*
X106255864Y-76271314D01*
X106255864Y-76271314D02*
X106313007Y-76157028D01*
X106313007Y-76157028D02*
X106370150Y-76099885D01*
X106370150Y-76099885D02*
X106484435Y-76042742D01*
D11*
X108006666Y-71009819D02*
X108006666Y-71724104D01*
X108006666Y-71724104D02*
X107959047Y-71866961D01*
X107959047Y-71866961D02*
X107863809Y-71962200D01*
X107863809Y-71962200D02*
X107720952Y-72009819D01*
X107720952Y-72009819D02*
X107625714Y-72009819D01*
X108435238Y-71105057D02*
X108482857Y-71057438D01*
X108482857Y-71057438D02*
X108578095Y-71009819D01*
X108578095Y-71009819D02*
X108816190Y-71009819D01*
X108816190Y-71009819D02*
X108911428Y-71057438D01*
X108911428Y-71057438D02*
X108959047Y-71105057D01*
X108959047Y-71105057D02*
X109006666Y-71200295D01*
X109006666Y-71200295D02*
X109006666Y-71295533D01*
X109006666Y-71295533D02*
X108959047Y-71438390D01*
X108959047Y-71438390D02*
X108387619Y-72009819D01*
X108387619Y-72009819D02*
X109006666Y-72009819D01*
%LPC*%
D12*
%TO.C,H5*%
X-7689870Y-47301180D03*
%TD*%
D13*
%TO.C,SW14*%
X41402000Y-5080000D03*
%TD*%
D14*
%TO.C,H2*%
X119052500Y-37799980D03*
%TD*%
D15*
%TO.C,J1*%
X70840000Y-75530000D03*
D16*
X73380000Y-75530000D03*
X75920000Y-75530000D03*
X78460000Y-75530000D03*
X81000000Y-75530000D03*
%TD*%
D15*
%TO.C,J2*%
X108340000Y-74005000D03*
D16*
X108340000Y-76545000D03*
%TD*%
D17*
%TO.C,H1*%
X16051800Y-18700780D03*
%TD*%
D13*
%TO.C,SW80*%
X262255000Y-25273000D03*
%TD*%
D12*
%TO.C,H6*%
X274393700Y-47301180D03*
%TD*%
D13*
%TO.C,SW82*%
X263683750Y-25273000D03*
%TD*%
D14*
%TO.C,H3*%
X181351900Y-76000680D03*
%TD*%
%TO.C,H4*%
X250902420Y-18700702D03*
%TD*%
D18*
%TO.C,J4*%
X6162500Y4380000D03*
X11942500Y4380000D03*
D19*
X4732500Y8030000D03*
D20*
X4732500Y3850000D03*
D19*
X13372500Y8030000D03*
D20*
X13372500Y3850000D03*
%TD*%
%LPD*%
M02*
