M48
; DRILL file {KiCad 8.0.2} date 2025-05-31T21:51:42-0700
; FORMAT={-:-/ absolute / inch / decimal}
; #@! TF.CreationDate,2025-05-31T21:51:42-07:00
; #@! TF.GenerationSoftware,Kicad,Pcbnew,8.0.2
; #@! TF.FileFunction,Plated,1,2,PTH
FMAT,2
INCH
; #@! TA.AperFunction,Plated,PTH,ViaDrill
T1C0.0118
; #@! TA.AperFunction,Plated,PTH,ComponentDrill
T2C0.0236
; #@! TA.AperFunction,Plated,PTH,ComponentDrill
T3C0.0394
; #@! TA.AperFunction,Plated,PTH,ComponentDrill
T4C0.0551
; #@! TA.AperFunction,Plated,PTH,ComponentDrill
T5C0.0984
%
G90
G05
T1
X0.137Y-0.3409
X0.2284Y0.0659
X0.2598Y0.0634
X0.3071Y0.0339
X0.4146Y-0.5819
X0.4516Y0.0634
X0.4531Y-0.0382
X0.4843Y0.0661
X0.5905Y-0.2705
X0.5905Y-0.3335
X0.6495Y-0.2671
X0.6502Y-0.3315
X0.6925Y-2.6803
X0.7059Y-1.1937
X0.7059Y-1.5874
X0.8075Y-2.6567
X0.8299Y-0.5504
X0.8299Y-0.6094
X0.8299Y-1.1642
X0.8299Y-1.2232
X0.8299Y-1.5579
X0.8299Y-1.6169
X0.8929Y-0.5504
X0.8929Y-0.6094
X0.8929Y-1.1642
X0.8929Y-1.2232
X0.8929Y-1.5579
X0.8929Y-1.6169
X0.911Y-1.1937
X0.911Y-1.5864
X0.9655Y-0.5799
X0.9655Y-0.3712
X0.9661Y-0.3051
X1.0245Y-0.3701
X1.0253Y-0.3071
X1.153Y-1.9094
X1.153Y-1.9728
X1.212Y-1.9094
X1.212Y-1.9728
X1.3508Y-0.3941
X1.5575Y-2.6409
X1.5701Y-0.2689
X1.5701Y-0.3972
X1.6142Y-1.9094
X1.6142Y-1.9728
X1.6341Y-2.6252
X1.6378Y-0.5803
X1.6614Y-2.6094
X1.6657Y-0.8364
X1.6772Y-1.5864
X1.6897Y-2.5937
X1.6929Y-1.9094
X1.6929Y-1.9728
X1.7155Y-0.3701
X1.7159Y-0.3064
X1.7745Y-0.3701
X1.7753Y-0.3071
X1.8815Y-0.0864
X1.903Y-1.9094
X1.903Y-1.9728
X1.9081Y-0.2296
X1.9087Y-0.0568
X1.9087Y-0.1705
X1.962Y-1.9094
X1.962Y-1.9728
X1.9715Y-0.2296
X1.9717Y-0.0568
X1.9717Y-0.1705
X2.0398Y-0.0864
X2.653Y-1.9094
X2.653Y-1.9728
X2.712Y-1.9094
X2.712Y-1.9728
X3.2287Y-2.8606
X3.403Y-1.9094
X3.403Y-1.9728
X3.462Y-1.9094
X3.462Y-1.9728
X4.153Y-1.9094
X4.153Y-1.9728
X4.212Y-1.9094
X4.212Y-1.9728
X4.2654Y-2.7571
X4.3693Y-3.0568
X4.4409Y-2.9272
X4.903Y-1.9094
X4.903Y-1.9728
X4.962Y-1.9094
X4.962Y-1.9728
X5.4441Y-2.3364
X5.4441Y-2.7039
X5.4535Y-2.7571
X5.4543Y-2.7886
X5.653Y-1.9094
X5.653Y-1.9728
X5.712Y-1.9094
X5.712Y-1.9728
X5.712Y-3.11
X6.0122Y-3.2807
X6.1028Y-3.0083
X6.1398Y-2.9736
X6.2186Y-2.9008
X6.2304Y-2.9421
X6.3327Y-3.1705
X6.376Y-3.2453
X6.3916Y-3.1744
X6.403Y-1.9094
X6.403Y-1.9728
X6.462Y-1.9094
X6.462Y-1.9728
X6.5729Y-2.7295
X6.5768Y-2.5799
X6.5787Y-3.2022
X6.6044Y-3.2204
X6.6123Y-2.7295
X6.6949Y-3.072
X6.7067Y-3.0366
X6.7874Y-2.8339
X6.7874Y-2.8654
X6.8228Y-2.8811
X6.8276Y-2.8181
X6.8563Y-3.0484
X6.8688Y-2.6753
X6.8858Y-2.8811
X6.8993Y-2.8181
X7.061Y-2.8339
X7.0622Y-2.8654
X7.0893Y-2.6005
X7.153Y-1.9094
X7.153Y-1.9728
X7.212Y-1.9094
X7.212Y-1.9728
X7.3767Y-2.6477
X7.3767Y-2.7409
X7.3767Y-2.811
X7.3767Y-2.8811
X7.4055Y-2.9701
X7.4055Y-3.1181
X7.4358Y-2.6477
X7.4358Y-2.7409
X7.4358Y-2.811
X7.4358Y-2.8811
X7.587Y-2.3364
X7.6882Y-2.3068
X7.6882Y-2.3659
X7.7299Y-3.0864
X7.7567Y-2.3068
X7.7567Y-2.3659
X7.788Y-2.3364
X7.9402Y-2.8569
X8.1126Y-3.0864
X8.6823Y-2.5689
X9.5987Y-2.5846
X10.1825Y-2.6083
T3
X2.789Y-2.9736
X2.889Y-2.9736
X2.989Y-2.9736
X3.089Y-2.9736
X3.189Y-2.9736
X4.2654Y-2.9136
X4.2654Y-3.0136
T4
X-0.13Y0.025
X-0.13Y-0.2
X-0.0362Y-2.225
X-0.0362Y-2.45
X0.0575Y-0.725
X0.0575Y-0.95
X0.0575Y-1.475
X0.0575Y-1.7
X0.0575Y-2.975
X0.0575Y-3.2
X0.0575Y-2.225
X0.0575Y-2.45
X0.13Y0.025
X0.13Y-0.2
X0.1512Y-0.725
X0.1512Y-0.95
X0.1512Y-1.475
X0.1512Y-1.7
X0.2238Y-2.225
X0.2238Y-2.45
X0.245Y-2.975
X0.245Y-3.2
X0.3175Y-0.725
X0.3175Y-0.95
X0.3175Y-1.475
X0.3175Y-1.7
X0.3175Y-2.975
X0.3175Y-3.2
X0.3175Y-2.225
X0.3175Y-2.45
X0.3387Y-2.225
X0.3387Y-2.45
X0.4113Y-0.725
X0.4113Y-0.95
X0.4113Y-1.475
X0.4113Y-1.7
X0.4325Y-2.225
X0.4325Y-2.45
X0.505Y-2.975
X0.505Y-3.2
X0.5988Y-2.225
X0.5988Y-2.45
X0.62Y0.025
X0.62Y-0.2
X0.6925Y-2.225
X0.6925Y-2.45
X0.8075Y-2.225
X0.8075Y-2.45
X0.88Y0.025
X0.88Y-0.2
X0.995Y-0.725
X0.995Y-0.95
X0.995Y-2.975
X0.995Y-3.2
X1.0675Y-2.225
X1.0675Y-2.45
X1.0887Y-2.975
X1.0887Y-3.2
X1.1825Y-1.475
X1.1825Y-1.7
X1.255Y-0.725
X1.255Y-0.95
X1.255Y-2.975
X1.255Y-3.2
X1.3487Y-2.975
X1.3487Y-3.2
X1.37Y0.025
X1.37Y-0.2
X1.4425Y-1.475
X1.4425Y-1.7
X1.5575Y-2.225
X1.5575Y-2.45
X1.5575Y-2.975
X1.5575Y-3.2
X1.63Y0.025
X1.745Y-0.725
X1.745Y-0.95
X1.745Y-2.975
X1.745Y-3.2
X1.8175Y-2.225
X1.8175Y-2.45
X1.8175Y-2.975
X1.8175Y-3.2
X1.9325Y-1.475
X1.9325Y-1.7
X1.9325Y-2.975
X1.9325Y-3.2
X2.005Y-0.725
X2.005Y-0.95
X2.005Y-2.975
X2.005Y-3.2
X2.0263Y-2.975
X2.0263Y-3.2
X2.12Y0.025
X2.12Y-0.2
X2.1925Y-1.475
X2.1925Y-1.7
X2.1925Y-2.975
X2.1925Y-3.2
X2.2862Y-2.975
X2.2862Y-3.2
X2.3075Y-2.225
X2.3075Y-2.45
X2.38Y0.025
X2.38Y-0.2
X2.495Y-0.725
X2.495Y-0.95
X2.5675Y-2.225
X2.5675Y-2.45
X2.6825Y-1.475
X2.6825Y-1.7
X2.755Y-0.725
X2.755Y-0.95
X2.87Y0.025
X2.87Y-0.2
X2.9425Y-1.475
X2.9425Y-1.7
X3.0575Y-2.225
X3.0575Y-2.45
X3.13Y0.025
X3.13Y-0.2
X3.245Y-0.725
X3.245Y-0.95
X3.3175Y-2.225
X3.3175Y-2.45
X3.4325Y-1.475
X3.4325Y-1.7
X3.505Y-0.725
X3.505Y-0.95
X3.5263Y-2.975
X3.5263Y-3.2
X3.62Y0.025
X3.62Y-0.2
X3.6925Y-1.475
X3.6925Y-1.7
X3.7862Y-2.975
X3.7862Y-3.2
X3.8075Y-2.225
X3.8075Y-2.45
X3.88Y0.025
X3.88Y-0.2
X3.995Y-0.725
X3.995Y-0.95
X4.0675Y-2.225
X4.0675Y-2.45
X4.1825Y-1.475
X4.1825Y-1.7
X4.255Y-0.725
X4.255Y-0.95
X4.37Y0.025
X4.37Y-0.2
X4.4425Y-1.475
X4.4425Y-1.7
X4.5575Y-2.225
X4.5575Y-2.45
X4.63Y0.025
X4.63Y-0.2
X4.6513Y-2.975
X4.6513Y-3.2
X4.745Y-0.725
X4.745Y-0.95
X4.8175Y-2.225
X4.8175Y-2.45
X4.9112Y-2.975
X4.9112Y-3.2
X4.9325Y-1.475
X4.9325Y-1.7
X5.005Y-0.725
X5.005Y-0.95
X5.12Y0.025
X5.12Y-0.2
X5.12Y-2.975
X5.12Y-3.2
X5.1925Y-1.475
X5.1925Y-1.7
X5.3075Y-2.225
X5.3075Y-2.45
X5.38Y0.025
X5.38Y-0.2
X5.38Y-2.975
X5.38Y-3.2
X5.495Y-0.725
X5.495Y-0.95
X5.5675Y-2.225
X5.5675Y-2.45
X5.6825Y-1.475
X5.6825Y-1.7
X5.6825Y-2.975
X5.6825Y-3.2
X5.755Y-0.725
X5.755Y-0.95
X5.87Y0.025
X5.87Y-0.2
X5.9425Y-1.475
X5.9425Y-1.7
X5.9425Y-2.975
X5.9425Y-3.2
X6.0575Y-2.225
X6.0575Y-2.45
X6.13Y0.025
X6.13Y-0.2
X6.245Y-0.725
X6.245Y-0.95
X6.3175Y-2.225
X6.3175Y-2.45
X6.4325Y-1.475
X6.4325Y-1.7
X6.505Y-0.725
X6.505Y-0.95
X6.62Y0.025
X6.62Y-0.2
X6.6925Y-1.475
X6.6925Y-1.7
X6.8075Y-2.225
X6.8075Y-2.45
X6.88Y0.025
X6.88Y-0.2
X6.995Y-0.725
X6.995Y-0.95
X7.0675Y-2.225
X7.0675Y-2.45
X7.1825Y-1.475
X7.1825Y-1.7
X7.255Y-0.725
X7.255Y-0.95
X7.2763Y-2.975
X7.2763Y-3.2
X7.37Y0.025
X7.37Y-0.2
X7.4425Y-1.475
X7.4425Y-1.7
X7.5362Y-2.975
X7.5362Y-3.2
X7.5575Y-2.225
X7.5575Y-2.45
X7.63Y0.025
X7.63Y-0.2
X7.745Y-0.725
X7.745Y-0.95
X7.8175Y-2.225
X7.8175Y-2.45
X7.9325Y-1.475
X7.9325Y-1.7
X8.005Y-0.725
X8.005Y-0.95
X8.12Y0.025
X8.12Y-0.2
X8.1925Y-1.475
X8.1925Y-1.7
X8.2137Y-2.975
X8.2137Y-3.2
X8.3075Y-2.225
X8.3075Y-2.45
X8.3075Y-2.975
X8.3075Y-3.2
X8.38Y0.025
X8.38Y-0.2
X8.4737Y-2.975
X8.4737Y-3.2
X8.495Y-0.725
X8.495Y-0.95
X8.495Y-2.975
X8.495Y-3.2
X8.5675Y-2.225
X8.5675Y-2.45
X8.5675Y-2.975
X8.5675Y-3.2
X8.6825Y-1.475
X8.6825Y-1.7
X8.6825Y-2.975
X8.6825Y-3.2
X8.755Y-0.725
X8.755Y-0.95
X8.755Y-2.975
X8.755Y-3.2
X8.87Y0.025
X8.87Y-0.2
X8.9425Y-1.475
X8.9425Y-1.7
X8.9425Y-2.975
X8.9425Y-3.2
X9.13Y0.025
X9.13Y-0.2
X9.1512Y-2.975
X9.1512Y-3.2
X9.245Y-0.725
X9.245Y-0.95
X9.245Y-2.975
X9.245Y-3.2
X9.3387Y-2.225
X9.3387Y-2.45
X9.4112Y-2.975
X9.4112Y-3.2
X9.4325Y-1.475
X9.4325Y-1.7
X9.505Y-0.725
X9.505Y-0.95
X9.505Y-2.975
X9.505Y-3.2
X9.5987Y-2.225
X9.5987Y-2.45
X9.62Y0.025
X9.62Y-0.2
X9.6925Y-1.475
X9.6925Y-1.7
X9.7137Y-2.225
X9.7137Y-2.45
X9.8075Y-1.475
X9.8075Y-1.7
X9.88Y0.025
X9.88Y-0.2
X9.9012Y-1.475
X9.9012Y-1.7
X9.9737Y-2.225
X9.9737Y-2.45
X9.995Y0.025
X9.995Y-0.2
X9.995Y-2.975
X9.995Y-3.2
X10.0675Y-1.475
X10.0675Y-1.7
X10.0887Y-0.725
X10.0887Y-0.95
X10.1Y-0.995
X10.1Y-1.255
X10.1612Y-1.475
X10.1612Y-1.7
X10.1825Y-0.725
X10.1825Y-0.95
X10.1825Y-2.975
X10.1825Y-3.2
X10.255Y0.025
X10.255Y-0.2
X10.255Y-2.975
X10.255Y-3.2
X10.325Y-1.255
X10.3487Y-0.725
X10.3487Y-0.95
X10.37Y0.025
X10.37Y-0.2
X10.37Y-2.225
X10.37Y-2.45
X10.3812Y-1.255
X10.4425Y-0.725
X10.4425Y-0.95
X10.4425Y-2.975
X10.4425Y-3.2
X10.6062Y-0.995
X10.6062Y-1.255
X10.63Y0.025
X10.63Y-0.2
X10.63Y-2.225
X10.63Y-2.45
T5
X0.632Y-0.7363
T2
G00X0.1863Y0.328
M15
G01X0.1863Y0.3043
M16
G05
G00X0.1863Y0.1732
M15
G01X0.1863Y0.1299
M16
G05
G00X0.5265Y0.328
M15
G01X0.5265Y0.3043
M16
G05
G00X0.5265Y0.1732
M15
G01X0.5265Y0.1299
M16
G05
M30
