%TF.GenerationSoftware,KiCad,Pcbnew,8.0.2*%
%TF.CreationDate,2025-05-31T22:41:58-07:00*%
%TF.ProjectId,SI60,53493630-2e6b-4696-9361-645f70636258,rev?*%
%TF.SameCoordinates,Original*%
%TF.FileFunction,Soldermask,Bot*%
%TF.FilePolarity,Negative*%
%FSLAX46Y46*%
G04 Gerber Fmt 4.6, Leading zero omitted, Abs format (unit mm)*
G04 Created by KiCad (PCBNEW 8.0.2) date 2025-05-31 22:41:58*
%MOMM*%
%LPD*%
G01*
G04 APERTURE LIST*
G04 Aperture macros list*
%AMRoundRect*
0 Rectangle with rounded corners*
0 $1 Rounding radius*
0 $2 $3 $4 $5 $6 $7 $8 $9 X,Y pos of 4 corners*
0 Add a 4 corners polygon primitive as box body*
4,1,4,$2,$3,$4,$5,$6,$7,$8,$9,$2,$3,0*
0 Add four circle primitives for the rounded corners*
1,1,$1+$1,$2,$3*
1,1,$1+$1,$4,$5*
1,1,$1+$1,$6,$7*
1,1,$1+$1,$8,$9*
0 Add four rect primitives between the rounded corners*
20,1,$1+$1,$2,$3,$4,$5,0*
20,1,$1+$1,$4,$5,$6,$7,0*
20,1,$1+$1,$6,$7,$8,$9,0*
20,1,$1+$1,$8,$9,$2,$3,0*%
%AMFreePoly0*
4,1,43,0.323205,1.206219,0.527753,1.131770,0.716265,1.022932,0.883013,0.883013,1.022932,0.716265,1.131770,0.527753,1.206219,0.323205,1.244018,0.108837,1.244590,0.082554,1.246389,0.073513,1.246389,-0.073513,1.217705,-0.217714,1.161441,-0.353548,1.079758,-0.475795,0.975795,-0.579758,0.853548,-0.661441,0.717714,-0.717705,0.573513,-0.746389,0.015389,-0.748265,0.000000,-0.750000,
-0.014501,-0.748366,-0.500000,-0.750000,-0.573513,-0.746389,-0.717714,-0.717705,-0.853548,-0.661441,-0.975795,-0.579758,-1.079758,-0.475795,-1.161441,-0.353548,-1.217705,-0.217714,-1.246389,-0.073513,-1.246389,0.073513,-1.244590,0.082554,-1.244018,0.108837,-1.206219,0.323205,-1.131770,0.527753,-1.022932,0.716265,-0.883013,0.883013,-0.716265,1.022932,-0.527753,1.131770,-0.323205,1.206219,
-0.108837,1.244018,0.108837,1.244018,0.323205,1.206219,0.323205,1.206219,$1*%
%AMFreePoly1*
4,1,19,0.500000,-0.750000,0.000000,-0.750000,0.000000,-0.744911,-0.071157,-0.744911,-0.207708,-0.704816,-0.327430,-0.627875,-0.420627,-0.520320,-0.479746,-0.390866,-0.500000,-0.250000,-0.500000,0.250000,-0.479746,0.390866,-0.420627,0.520320,-0.327430,0.627875,-0.207708,0.704816,-0.071157,0.744911,0.000000,0.744911,0.000000,0.750000,0.500000,0.750000,0.500000,-0.750000,0.500000,-0.750000,
$1*%
%AMFreePoly2*
4,1,19,0.000000,0.744911,0.071157,0.744911,0.207708,0.704816,0.327430,0.627875,0.420627,0.520320,0.479746,0.390866,0.500000,0.250000,0.500000,-0.250000,0.479746,-0.390866,0.420627,-0.520320,0.327430,-0.627875,0.207708,-0.704816,0.071157,-0.744911,0.000000,-0.744911,0.000000,-0.750000,-0.500000,-0.750000,-0.500000,0.750000,0.000000,0.750000,0.000000,0.744911,0.000000,0.744911,
$1*%
G04 Aperture macros list end*
%ADD10FreePoly0,270.000000*%
%ADD11C,2.300000*%
%ADD12FreePoly0,90.000000*%
%ADD13O,7.000240X2.499360*%
%ADD14C,1.400000*%
%ADD15FreePoly0,0.000000*%
%ADD16O,5.001260X2.499360*%
%ADD17C,1.700000*%
%ADD18O,1.700000X1.700000*%
%ADD19C,6.000000*%
%ADD20RoundRect,0.225000X0.375000X-0.225000X0.375000X0.225000X-0.375000X0.225000X-0.375000X-0.225000X0*%
%ADD21RoundRect,0.250000X-0.250000X-0.475000X0.250000X-0.475000X0.250000X0.475000X-0.250000X0.475000X0*%
%ADD22RoundRect,0.150000X0.475000X0.150000X-0.475000X0.150000X-0.475000X-0.150000X0.475000X-0.150000X0*%
%ADD23RoundRect,0.150000X-0.625000X0.150000X-0.625000X-0.150000X0.625000X-0.150000X0.625000X0.150000X0*%
%ADD24RoundRect,0.250000X-0.650000X0.350000X-0.650000X-0.350000X0.650000X-0.350000X0.650000X0.350000X0*%
%ADD25RoundRect,0.225000X0.250000X-0.225000X0.250000X0.225000X-0.250000X0.225000X-0.250000X-0.225000X0*%
%ADD26RoundRect,0.250000X0.450000X-0.262500X0.450000X0.262500X-0.450000X0.262500X-0.450000X-0.262500X0*%
%ADD27RoundRect,0.225000X-0.250000X0.225000X-0.250000X-0.225000X0.250000X-0.225000X0.250000X0.225000X0*%
%ADD28RoundRect,0.225000X0.225000X0.250000X-0.225000X0.250000X-0.225000X-0.250000X0.225000X-0.250000X0*%
%ADD29RoundRect,0.250000X0.475000X-0.250000X0.475000X0.250000X-0.475000X0.250000X-0.475000X-0.250000X0*%
%ADD30RoundRect,0.200000X-0.275000X0.200000X-0.275000X-0.200000X0.275000X-0.200000X0.275000X0.200000X0*%
%ADD31RoundRect,0.150000X-0.512500X-0.150000X0.512500X-0.150000X0.512500X0.150000X-0.512500X0.150000X0*%
%ADD32C,0.650000*%
%ADD33R,0.600000X1.450000*%
%ADD34R,0.300000X1.450000*%
%ADD35O,1.000000X1.600000*%
%ADD36O,1.000000X2.100000*%
%ADD37RoundRect,0.075000X-0.662500X-0.075000X0.662500X-0.075000X0.662500X0.075000X-0.662500X0.075000X0*%
%ADD38RoundRect,0.075000X-0.075000X-0.662500X0.075000X-0.662500X0.075000X0.662500X-0.075000X0.662500X0*%
%ADD39RoundRect,0.225000X-0.225000X-0.250000X0.225000X-0.250000X0.225000X0.250000X-0.225000X0.250000X0*%
%ADD40FreePoly1,270.000000*%
%ADD41FreePoly2,270.000000*%
%ADD42RoundRect,0.250000X-0.475000X0.250000X-0.475000X-0.250000X0.475000X-0.250000X0.475000X0.250000X0*%
%ADD43RoundRect,0.250000X-0.625000X0.375000X-0.625000X-0.375000X0.625000X-0.375000X0.625000X0.375000X0*%
G04 APERTURE END LIST*
D10*
%TO.C,SW77*%
X253873000Y635000D03*
X253873000Y-5080000D03*
D11*
X260477000Y635000D03*
X260477000Y-5080000D03*
%TD*%
%TO.C,SW74*%
X258635500Y-18415000D03*
X258635500Y-24130000D03*
X265239500Y-18415000D03*
X265239500Y-24130000D03*
%TD*%
%TO.C,SW6*%
X3841750Y-18415000D03*
X3841750Y-24130000D03*
X10445750Y-18415000D03*
X10445750Y-24130000D03*
%TD*%
%TO.C,SW29*%
X82423000Y-18415000D03*
X82423000Y-24130000D03*
X89027000Y-18415000D03*
X89027000Y-24130000D03*
%TD*%
%TO.C,SW40*%
X134810500Y-56515000D03*
X134810500Y-62230000D03*
X141414500Y-56515000D03*
X141414500Y-62230000D03*
%TD*%
%TO.C,SW70*%
X234823000Y-75565000D03*
X234823000Y-81280000D03*
X241427000Y-75565000D03*
X241427000Y-81280000D03*
%TD*%
%TO.C,SW54*%
X182435500Y-37465000D03*
X182435500Y-43180000D03*
X189039500Y-37465000D03*
X189039500Y-43180000D03*
%TD*%
%TO.C,SW38*%
X120523000Y-18415000D03*
X120523000Y-24130000D03*
X127127000Y-18415000D03*
X127127000Y-24130000D03*
%TD*%
%TO.C,SW61*%
X211010500Y-75565000D03*
X211010500Y-81280000D03*
D12*
X217614500Y-75565000D03*
X217614500Y-81280000D03*
%TD*%
D11*
%TO.C,SW68*%
X239585500Y-37465000D03*
X239585500Y-43180000D03*
D12*
X246189500Y-37465000D03*
X246189500Y-43180000D03*
%TD*%
D11*
%TO.C,SW44*%
X149098000Y635000D03*
X149098000Y-5080000D03*
X155702000Y635000D03*
X155702000Y-5080000D03*
%TD*%
%TO.C,SW32*%
X89566750Y-75565000D03*
X89566750Y-81280000D03*
X96170750Y-75565000D03*
X96170750Y-81280000D03*
%TD*%
%TO.C,SW22*%
X49085500Y-37465000D03*
X49085500Y-43180000D03*
X55689500Y-37465000D03*
X55689500Y-43180000D03*
%TD*%
%TO.C,SW19*%
X51466750Y-75565000D03*
X51466750Y-81280000D03*
X58070750Y-75565000D03*
X58070750Y-81280000D03*
%TD*%
D13*
%TO.C,H5*%
X-7689870Y-47301180D03*
%TD*%
D10*
%TO.C,SW11*%
X20510500Y-56515000D03*
X20510500Y-62230000D03*
D11*
X27114500Y-56515000D03*
X27114500Y-62230000D03*
%TD*%
%TO.C,SW26*%
X68135500Y-37465000D03*
X68135500Y-43180000D03*
X74739500Y-37465000D03*
X74739500Y-43180000D03*
%TD*%
%TO.C,SW23*%
X58610500Y-56515000D03*
X58610500Y-62230000D03*
X65214500Y-56515000D03*
X65214500Y-62230000D03*
%TD*%
%TO.C,SW83*%
X6223000Y-75565000D03*
X6223000Y-81280000D03*
X12827000Y-75565000D03*
X12827000Y-81280000D03*
%TD*%
%TO.C,SW56*%
X184816750Y-75565000D03*
X184816750Y-81280000D03*
X191420750Y-75565000D03*
X191420750Y-81280000D03*
%TD*%
%TO.C,SW72*%
X232441750Y-75565000D03*
X232441750Y-81280000D03*
X239045750Y-75565000D03*
X239045750Y-81280000D03*
%TD*%
D14*
%TO.C,SW14*%
X41402000Y-5080000D03*
D11*
X34798000Y635000D03*
D15*
X34798000Y-5080000D03*
D11*
X41402000Y635000D03*
%TD*%
%TO.C,SW88*%
X39560500Y-75565000D03*
X39560500Y-81280000D03*
D12*
X46164500Y-75565000D03*
X46164500Y-81280000D03*
%TD*%
D11*
%TO.C,SW27*%
X77660500Y-56515000D03*
X77660500Y-62230000D03*
X84264500Y-56515000D03*
X84264500Y-62230000D03*
%TD*%
%TO.C,SW57*%
X206248000Y635000D03*
X206248000Y-5080000D03*
X212852000Y635000D03*
X212852000Y-5080000D03*
%TD*%
%TO.C,SW8*%
X8604250Y-56515000D03*
X8604250Y-62230000D03*
X15208250Y-56515000D03*
X15208250Y-62230000D03*
%TD*%
%TO.C,SW2*%
X1460500Y-18415000D03*
X1460500Y-24130000D03*
X8064500Y-18415000D03*
X8064500Y-24130000D03*
%TD*%
%TO.C,SW76*%
X258635500Y-75565000D03*
X258635500Y-81280000D03*
X265239500Y-75565000D03*
X265239500Y-81280000D03*
%TD*%
%TO.C,SW36*%
X115760500Y-56515000D03*
X115760500Y-62230000D03*
X122364500Y-56515000D03*
X122364500Y-62230000D03*
%TD*%
D10*
%TO.C,SW87*%
X220535500Y-75565000D03*
X220535500Y-81280000D03*
D11*
X227139500Y-75565000D03*
X227139500Y-81280000D03*
%TD*%
D16*
%TO.C,H2*%
X119052500Y-37799980D03*
%TD*%
D17*
%TO.C,J1*%
X70840000Y-75530000D03*
D18*
X73380000Y-75530000D03*
X75920000Y-75530000D03*
X78460000Y-75530000D03*
X81000000Y-75530000D03*
%TD*%
D11*
%TO.C,SW45*%
X139573000Y-18415000D03*
X139573000Y-24130000D03*
X146177000Y-18415000D03*
X146177000Y-24130000D03*
%TD*%
%TO.C,SW51*%
X172910500Y-56515000D03*
X172910500Y-62230000D03*
X179514500Y-56515000D03*
X179514500Y-62230000D03*
%TD*%
%TO.C,SW12*%
X25273000Y-75565000D03*
X25273000Y-81280000D03*
X31877000Y-75565000D03*
X31877000Y-81280000D03*
%TD*%
%TO.C,SW85*%
X44323000Y-75565000D03*
X44323000Y-81280000D03*
X50927000Y-75565000D03*
X50927000Y-81280000D03*
%TD*%
%TO.C,SW78*%
X256254250Y-18415000D03*
X256254250Y-24130000D03*
X262858250Y-18415000D03*
X262858250Y-24130000D03*
%TD*%
%TO.C,SW67*%
X234823000Y-18415000D03*
X234823000Y-24130000D03*
X241427000Y-18415000D03*
X241427000Y-24130000D03*
%TD*%
%TO.C,SW55*%
X191960500Y-56515000D03*
X191960500Y-62230000D03*
X198564500Y-56515000D03*
X198564500Y-62230000D03*
%TD*%
D10*
%TO.C,SW18*%
X49085500Y-75565000D03*
X49085500Y-81280000D03*
D11*
X55689500Y-75565000D03*
X55689500Y-81280000D03*
%TD*%
%TO.C,SW21*%
X44323000Y-18415000D03*
X44323000Y-24130000D03*
X50927000Y-18415000D03*
X50927000Y-24130000D03*
%TD*%
%TO.C,SW34*%
X101473000Y-18415000D03*
X101473000Y-24130000D03*
X108077000Y-18415000D03*
X108077000Y-24130000D03*
%TD*%
%TO.C,SW43*%
X144335500Y-75565000D03*
X144335500Y-81280000D03*
X150939500Y-75565000D03*
X150939500Y-81280000D03*
%TD*%
%TO.C,SW37*%
X130048000Y635000D03*
X130048000Y-5080000D03*
X136652000Y635000D03*
X136652000Y-5080000D03*
%TD*%
D17*
%TO.C,J2*%
X108340000Y-74005000D03*
D18*
X108340000Y-76545000D03*
%TD*%
D11*
%TO.C,SW9*%
X10985500Y-56515000D03*
X10985500Y-62230000D03*
D12*
X17589500Y-56515000D03*
X17589500Y-62230000D03*
%TD*%
D11*
%TO.C,SW71*%
X246729250Y-56515000D03*
X246729250Y-62230000D03*
X253333250Y-56515000D03*
X253333250Y-62230000D03*
%TD*%
%TO.C,SW7*%
X3841750Y-37465000D03*
X3841750Y-43180000D03*
X10445750Y-37465000D03*
X10445750Y-43180000D03*
%TD*%
%TO.C,SW30*%
X87185500Y-37465000D03*
X87185500Y-43180000D03*
X93789500Y-37465000D03*
X93789500Y-43180000D03*
%TD*%
%TO.C,SW15*%
X25273000Y-18415000D03*
X25273000Y-24130000D03*
X31877000Y-18415000D03*
X31877000Y-24130000D03*
%TD*%
%TO.C,SW48*%
X168148000Y635000D03*
X168148000Y-5080000D03*
X174752000Y635000D03*
X174752000Y-5080000D03*
%TD*%
%TO.C,SW69*%
X237204250Y-56515000D03*
X237204250Y-62230000D03*
X243808250Y-56515000D03*
X243808250Y-62230000D03*
%TD*%
%TO.C,SW86*%
X215773000Y-75565000D03*
X215773000Y-81280000D03*
X222377000Y-75565000D03*
X222377000Y-81280000D03*
%TD*%
D19*
%TO.C,H1*%
X16051800Y-18700780D03*
%TD*%
D11*
%TO.C,SW50*%
X163385500Y-37465000D03*
X163385500Y-43180000D03*
X169989500Y-37465000D03*
X169989500Y-43180000D03*
%TD*%
%TO.C,SW66*%
X244348000Y635000D03*
X244348000Y-5080000D03*
D12*
X250952000Y635000D03*
X250952000Y-5080000D03*
%TD*%
D11*
%TO.C,SW52*%
X187198000Y635000D03*
X187198000Y-5080000D03*
X193802000Y635000D03*
X193802000Y-5080000D03*
%TD*%
%TO.C,SW17*%
X39560500Y-56515000D03*
X39560500Y-62230000D03*
X46164500Y-56515000D03*
X46164500Y-62230000D03*
%TD*%
%TO.C,SW1*%
X-3302000Y635000D03*
X-3302000Y-5080000D03*
X3302000Y635000D03*
X3302000Y-5080000D03*
%TD*%
%TO.C,SW13*%
X27654250Y-75565000D03*
X27654250Y-81280000D03*
X34258250Y-75565000D03*
X34258250Y-81280000D03*
%TD*%
%TO.C,SW60*%
X211010500Y-56515000D03*
X211010500Y-62230000D03*
X217614500Y-56515000D03*
X217614500Y-62230000D03*
%TD*%
%TO.C,SW41*%
X130048000Y-75565000D03*
X130048000Y-81280000D03*
X136652000Y-75565000D03*
X136652000Y-81280000D03*
%TD*%
%TO.C,SW24*%
X72898000Y635000D03*
X72898000Y-5080000D03*
X79502000Y635000D03*
X79502000Y-5080000D03*
%TD*%
%TO.C,SW5*%
X1460500Y-75565000D03*
X1460500Y-81280000D03*
X8064500Y-75565000D03*
X8064500Y-81280000D03*
%TD*%
%TO.C,SW65*%
X220535500Y-37465000D03*
X220535500Y-43180000D03*
X227139500Y-37465000D03*
X227139500Y-43180000D03*
%TD*%
%TO.C,SW42*%
X118141750Y-75565000D03*
X118141750Y-81280000D03*
X124745750Y-75565000D03*
X124745750Y-81280000D03*
%TD*%
%TO.C,SW63*%
X225298000Y635000D03*
X225298000Y-5080000D03*
X231902000Y635000D03*
X231902000Y-5080000D03*
%TD*%
D10*
%TO.C,SW81*%
X249110500Y-37465000D03*
X249110500Y-43180000D03*
D11*
X255714500Y-37465000D03*
X255714500Y-43180000D03*
%TD*%
%TO.C,SW89*%
X1460520Y-56514922D03*
X1460520Y-62229922D03*
X8064520Y-56514922D03*
X8064520Y-62229922D03*
%TD*%
%TO.C,SW39*%
X125285500Y-37465000D03*
X125285500Y-43180000D03*
X131889500Y-37465000D03*
X131889500Y-43180000D03*
%TD*%
D14*
%TO.C,SW80*%
X262255000Y-25273000D03*
D11*
X256540000Y-31877000D03*
X262255000Y-31877000D03*
X256540000Y-25273000D03*
%TD*%
D13*
%TO.C,H6*%
X274393700Y-47301180D03*
%TD*%
D11*
%TO.C,SW10*%
X15748000Y635000D03*
X15748000Y-5080000D03*
X22352000Y635000D03*
X22352000Y-5080000D03*
%TD*%
%TO.C,SW47*%
X153860500Y-56515000D03*
X153860500Y-62230000D03*
X160464500Y-56515000D03*
X160464500Y-62230000D03*
%TD*%
D14*
%TO.C,SW82*%
X263683750Y-25273000D03*
D11*
X263683750Y-31877000D03*
X269398750Y-31877000D03*
X269398750Y-25273000D03*
%TD*%
%TO.C,SW16*%
X30035500Y-37465000D03*
X30035500Y-43180000D03*
X36639500Y-37465000D03*
X36639500Y-43180000D03*
%TD*%
%TO.C,SW58*%
X196723000Y-18415000D03*
X196723000Y-24130000D03*
X203327000Y-18415000D03*
X203327000Y-24130000D03*
%TD*%
%TO.C,SW73*%
X263398000Y635000D03*
X263398000Y-5080000D03*
X270002000Y635000D03*
X270002000Y-5080000D03*
%TD*%
%TO.C,SW28*%
X91948000Y635000D03*
X91948000Y-5080000D03*
X98552000Y635000D03*
X98552000Y-5080000D03*
%TD*%
%TO.C,SW75*%
X263398000Y-56515000D03*
X263398000Y-62230000D03*
X270002000Y-56515000D03*
X270002000Y-62230000D03*
%TD*%
%TO.C,SW35*%
X106235500Y-37465000D03*
X106235500Y-43180000D03*
X112839500Y-37465000D03*
X112839500Y-43180000D03*
%TD*%
%TO.C,SW25*%
X63373000Y-18415000D03*
X63373000Y-24130000D03*
X69977000Y-18415000D03*
X69977000Y-24130000D03*
%TD*%
%TO.C,SW20*%
X53848000Y635000D03*
X53848000Y-5080000D03*
X60452000Y635000D03*
X60452000Y-5080000D03*
%TD*%
%TO.C,SW3*%
X1460500Y-37465000D03*
X1460500Y-43180000D03*
X8064500Y-37465000D03*
X8064500Y-43180000D03*
%TD*%
%TO.C,SW84*%
X253873000Y-75565000D03*
X253873000Y-81280000D03*
X260477000Y-75565000D03*
X260477000Y-81280000D03*
%TD*%
%TO.C,SW46*%
X144335500Y-37465000D03*
X144335500Y-43180000D03*
X150939500Y-37465000D03*
X150939500Y-43180000D03*
%TD*%
D16*
%TO.C,H3*%
X181351900Y-76000680D03*
%TD*%
D11*
%TO.C,SW33*%
X110998000Y635000D03*
X110998000Y-5080000D03*
X117602000Y635000D03*
X117602000Y-5080000D03*
%TD*%
%TO.C,SW79*%
X251491750Y-37465000D03*
X251491750Y-43180000D03*
X258095750Y-37465000D03*
X258095750Y-43180000D03*
%TD*%
%TO.C,SW31*%
X96710500Y-56515000D03*
X96710500Y-62230000D03*
X103314500Y-56515000D03*
X103314500Y-62230000D03*
%TD*%
%TO.C,SW62*%
X208629250Y-75565000D03*
X208629250Y-81280000D03*
X215233250Y-75565000D03*
X215233250Y-81280000D03*
%TD*%
D16*
%TO.C,H4*%
X250902420Y-18700702D03*
%TD*%
D11*
%TO.C,SW49*%
X158623000Y-18415000D03*
X158623000Y-24130000D03*
X165227000Y-18415000D03*
X165227000Y-24130000D03*
%TD*%
%TO.C,SW4*%
X-920750Y-56515000D03*
X-920750Y-62230000D03*
X5683250Y-56515000D03*
X5683250Y-62230000D03*
%TD*%
%TO.C,SW53*%
X177673000Y-18415000D03*
X177673000Y-24130000D03*
X184277000Y-18415000D03*
X184277000Y-24130000D03*
%TD*%
%TO.C,SW64*%
X215773000Y-18415000D03*
X215773000Y-24130000D03*
X222377000Y-18415000D03*
X222377000Y-24130000D03*
%TD*%
%TO.C,SW59*%
X201485500Y-37465000D03*
X201485500Y-43180000D03*
X208089500Y-37465000D03*
X208089500Y-43180000D03*
%TD*%
D20*
%TO.C,D57*%
X240600000Y-2443750D03*
X240600000Y856250D03*
%TD*%
%TO.C,D49*%
X216693750Y-2443750D03*
X216693750Y856250D03*
%TD*%
D21*
%TO.C,C3*%
X78760000Y-72670000D03*
X80660000Y-72670000D03*
%TD*%
D20*
%TO.C,D37*%
X150018750Y-21493750D03*
X150018750Y-18193750D03*
%TD*%
D22*
%TO.C,U3*%
X10152500Y-20000D03*
X10152500Y-970000D03*
X10152500Y-1920000D03*
X7802500Y-1920000D03*
X7802500Y-970000D03*
X7802500Y-20000D03*
%TD*%
D20*
%TO.C,D32*%
X130968750Y-21493750D03*
X130968750Y-18193750D03*
%TD*%
D23*
%TO.C,J3*%
X36000020Y-6999922D03*
X36000020Y-7999922D03*
X36000020Y-8999922D03*
X36000020Y-9999922D03*
D24*
X39875020Y-5699922D03*
X39875020Y-11299922D03*
%TD*%
D25*
%TO.C,C1*%
X171351250Y-79005000D03*
X171351250Y-77455000D03*
%TD*%
D20*
%TO.C,D62*%
X257443750Y-2443750D03*
X257443750Y856250D03*
%TD*%
%TO.C,D9*%
X45243750Y-2443750D03*
X45243750Y856250D03*
%TD*%
%TO.C,D61*%
X245268750Y-78643750D03*
X245268750Y-75343750D03*
%TD*%
%TO.C,D8*%
X20900000Y-78643750D03*
X20900000Y-75343750D03*
%TD*%
%TO.C,D14*%
X64293750Y-2443750D03*
X64293750Y856250D03*
%TD*%
%TO.C,D30*%
X126206250Y-59593750D03*
X126206250Y-56293750D03*
%TD*%
%TO.C,D7*%
X30956250Y-59593750D03*
X30956250Y-56293750D03*
%TD*%
%TO.C,D22*%
X102393750Y-2443750D03*
X102393750Y856250D03*
%TD*%
D26*
%TO.C,R1*%
X111360000Y-76182500D03*
X111360000Y-74357500D03*
%TD*%
D20*
%TO.C,D55*%
X226218750Y-21493750D03*
X226218750Y-18193750D03*
%TD*%
%TO.C,D13*%
X61912500Y-78643750D03*
X61912500Y-75343750D03*
%TD*%
%TO.C,D64*%
X262070000Y-40543750D03*
X262070000Y-37243750D03*
%TD*%
%TO.C,D60*%
X257175000Y-59593750D03*
X257175000Y-56293750D03*
%TD*%
%TO.C,D40*%
X178593750Y-2443750D03*
X178593750Y856250D03*
%TD*%
%TO.C,D2*%
X10460000Y-30510000D03*
X10460000Y-27210000D03*
%TD*%
%TO.C,D26*%
X100012500Y-78643750D03*
X100012500Y-75343750D03*
%TD*%
D27*
%TO.C,C7*%
X156951250Y-73955000D03*
X156951250Y-75505000D03*
%TD*%
D20*
%TO.C,D47*%
X202406250Y-59593750D03*
X202406250Y-56293750D03*
%TD*%
%TO.C,D54*%
X235743750Y-2443750D03*
X235743750Y856250D03*
%TD*%
%TO.C,D15*%
X54768750Y-21493750D03*
X54768750Y-18193750D03*
%TD*%
%TO.C,D48*%
X195262500Y-78643750D03*
X195262500Y-75343750D03*
%TD*%
%TO.C,D56*%
X230981250Y-40543750D03*
X230981250Y-37243750D03*
%TD*%
D28*
%TO.C,C6*%
X168526250Y-66630000D03*
X166976250Y-66630000D03*
%TD*%
D20*
%TO.C,D12*%
X50006250Y-59593750D03*
X50006250Y-56293750D03*
%TD*%
%TO.C,D42*%
X173831250Y-40543750D03*
X173831250Y-37243750D03*
%TD*%
%TO.C,D27*%
X121443750Y-2443750D03*
X121443750Y856250D03*
%TD*%
D29*
%TO.C,C8*%
X181630000Y-68002500D03*
X181630000Y-66102500D03*
%TD*%
D20*
%TO.C,D17*%
X69056250Y-59593750D03*
X69056250Y-56293750D03*
%TD*%
D30*
%TO.C,R3*%
X2500000Y-8635000D03*
X2500000Y-10285000D03*
%TD*%
D20*
%TO.C,D25*%
X107156250Y-59593750D03*
X107156250Y-56293750D03*
%TD*%
%TO.C,D45*%
X188118750Y-21493750D03*
X188118750Y-18193750D03*
%TD*%
%TO.C,D34*%
X145256250Y-59593750D03*
X145256250Y-56293750D03*
%TD*%
%TO.C,D39*%
X164306250Y-59593750D03*
X164306250Y-56293750D03*
%TD*%
%TO.C,D29*%
X102090000Y-40543750D03*
X102090000Y-37243750D03*
%TD*%
%TO.C,D50*%
X207168750Y-21493750D03*
X207168750Y-18193750D03*
%TD*%
%TO.C,D38*%
X154781250Y-40543750D03*
X154781250Y-37243750D03*
%TD*%
%TO.C,D41*%
X169068750Y-21493750D03*
X169068750Y-18193750D03*
%TD*%
D28*
%TO.C,C5*%
X168526250Y-68330000D03*
X166976250Y-68330000D03*
%TD*%
D31*
%TO.C,U2*%
X176092500Y-68002500D03*
X176092500Y-66102500D03*
X178367500Y-67052500D03*
%TD*%
D20*
%TO.C,D19*%
X73818750Y-21493750D03*
X73818750Y-18193750D03*
%TD*%
%TO.C,D59*%
X235170000Y-40543750D03*
X235170000Y-37243750D03*
%TD*%
%TO.C,D66*%
X269081250Y-78643750D03*
X269081250Y-75343750D03*
%TD*%
D32*
%TO.C,J4*%
X6162500Y4380000D03*
X11942500Y4380000D03*
D33*
X5802500Y2935000D03*
X6602500Y2935000D03*
D34*
X7802500Y2935000D03*
X8802500Y2935000D03*
X9302500Y2935000D03*
X10302500Y2935000D03*
D33*
X11502500Y2935000D03*
X12302500Y2935000D03*
X12302500Y2935000D03*
X11502500Y2935000D03*
D34*
X10802500Y2935000D03*
X9802500Y2935000D03*
X8302500Y2935000D03*
X7302500Y2935000D03*
D33*
X6602500Y2935000D03*
X5802500Y2935000D03*
D35*
X4732500Y8030000D03*
D36*
X4732500Y3850000D03*
D35*
X13372500Y8030000D03*
D36*
X13372500Y3850000D03*
%TD*%
D37*
%TO.C,U1*%
X160307500Y-77680000D03*
X160307500Y-77180000D03*
X160307500Y-76680000D03*
X160307500Y-76180000D03*
X160307500Y-75680000D03*
X160307500Y-75180000D03*
X160307500Y-74680000D03*
X160307500Y-74180000D03*
X160307500Y-73680000D03*
X160307500Y-73180000D03*
X160307500Y-72680000D03*
X160307500Y-72180000D03*
D38*
X161720000Y-70767500D03*
X162220000Y-70767500D03*
X162720000Y-70767500D03*
X163220000Y-70767500D03*
X163720000Y-70767500D03*
X164220000Y-70767500D03*
X164720000Y-70767500D03*
X165220000Y-70767500D03*
X165720000Y-70767500D03*
X166220000Y-70767500D03*
X166720000Y-70767500D03*
X167220000Y-70767500D03*
D37*
X168632500Y-72180000D03*
X168632500Y-72680000D03*
X168632500Y-73180000D03*
X168632500Y-73680000D03*
X168632500Y-74180000D03*
X168632500Y-74680000D03*
X168632500Y-75180000D03*
X168632500Y-75680000D03*
X168632500Y-76180000D03*
X168632500Y-76680000D03*
X168632500Y-77180000D03*
X168632500Y-77680000D03*
D38*
X167220000Y-79092500D03*
X166720000Y-79092500D03*
X166220000Y-79092500D03*
X165720000Y-79092500D03*
X165220000Y-79092500D03*
X164720000Y-79092500D03*
X164220000Y-79092500D03*
X163720000Y-79092500D03*
X163220000Y-79092500D03*
X162720000Y-79092500D03*
X162220000Y-79092500D03*
X161720000Y-79092500D03*
%TD*%
D25*
%TO.C,C4*%
X173051250Y-79005000D03*
X173051250Y-77455000D03*
%TD*%
D20*
%TO.C,D4*%
X-5080000Y-59593750D03*
X-5080000Y-56293750D03*
%TD*%
%TO.C,D44*%
X197643750Y-2443750D03*
X197643750Y856250D03*
%TD*%
%TO.C,D33*%
X135731250Y-40543750D03*
X135731250Y-37243750D03*
%TD*%
D39*
%TO.C,C2*%
X160796250Y-81630000D03*
X162346250Y-81630000D03*
%TD*%
D20*
%TO.C,D16*%
X59531250Y-40543750D03*
X59531250Y-37243750D03*
%TD*%
%TO.C,D11*%
X40481250Y-40543750D03*
X40481250Y-37243750D03*
%TD*%
%TO.C,D28*%
X111918750Y-21493750D03*
X111918750Y-18193750D03*
%TD*%
%TO.C,D51*%
X211931250Y-40543750D03*
X211931250Y-37243750D03*
%TD*%
%TO.C,D43*%
X183356250Y-59593750D03*
X183356250Y-56293750D03*
%TD*%
%TO.C,D52*%
X221456250Y-59593750D03*
X221456250Y-56293750D03*
%TD*%
D40*
%TO.C,JP1*%
X188118750Y-76900000D03*
D41*
X188118750Y-78200000D03*
%TD*%
D20*
%TO.C,D3*%
X14287500Y-40543750D03*
X14287500Y-37243750D03*
%TD*%
%TO.C,D6*%
X26193750Y-2443750D03*
X26193750Y856250D03*
%TD*%
%TO.C,D46*%
X192881250Y-40543750D03*
X192881250Y-37243750D03*
%TD*%
%TO.C,D20*%
X78581250Y-40543750D03*
X78581250Y-37243750D03*
%TD*%
%TO.C,D24*%
X97631250Y-40543750D03*
X97631250Y-37243750D03*
%TD*%
D30*
%TO.C,R2*%
X13170000Y-855000D03*
X13170000Y-2505000D03*
%TD*%
D20*
%TO.C,D1*%
X-520000Y-11027500D03*
X-520000Y-7727500D03*
%TD*%
D42*
%TO.C,C9*%
X172930000Y-66102500D03*
X172930000Y-68002500D03*
%TD*%
D20*
%TO.C,D21*%
X88106250Y-59593750D03*
X88106250Y-56293750D03*
%TD*%
%TO.C,D36*%
X159543750Y-2443750D03*
X159543750Y856250D03*
%TD*%
%TO.C,D53*%
X229830000Y-78660000D03*
X229830000Y-75360000D03*
%TD*%
D43*
%TO.C,F1*%
X6620000Y-6140000D03*
X6620000Y-8940000D03*
%TD*%
D20*
%TO.C,D31*%
X140493750Y-2443750D03*
X140493750Y856250D03*
%TD*%
%TO.C,D18*%
X83343750Y-2443750D03*
X83343750Y856250D03*
%TD*%
%TO.C,D58*%
X230407500Y-21493750D03*
X230407500Y-18193750D03*
%TD*%
%TO.C,D35*%
X114410000Y-78643750D03*
X114410000Y-75343750D03*
%TD*%
%TO.C,D5*%
X16930000Y-78643750D03*
X16930000Y-75343750D03*
%TD*%
%TO.C,D63*%
X269081250Y-21493750D03*
X269081250Y-18193750D03*
%TD*%
%TO.C,D10*%
X35718750Y-21493750D03*
X35718750Y-18193750D03*
%TD*%
%TO.C,D65*%
X260290000Y-59593750D03*
X260290000Y-56293750D03*
%TD*%
%TO.C,D23*%
X92868750Y-21493750D03*
X92868750Y-18193750D03*
%TD*%
M02*
