%TF.GenerationSoftware,KiCad,Pcbnew,8.0.2*%
%TF.CreationDate,2025-05-31T21:51:42-07:00*%
%TF.ProjectId,SI60,53493630-2e6b-4696-9361-645f70636258,rev?*%
%TF.SameCoordinates,Original*%
%TF.FileFunction,Profile,NP*%
%FSLAX46Y46*%
G04 Gerber Fmt 4.6, Leading zero omitted, Abs format (unit mm)*
G04 Created by KiCad (PCBNEW 8.0.2) date 2025-05-31 21:51:42*
%MOMM*%
%LPD*%
G01*
G04 APERTURE LIST*
%TA.AperFunction,Profile*%
%ADD10C,0.400000*%
%TD*%
G04 APERTURE END LIST*
D10*
X24353659Y9200098D02*
G75*
G02*
X25715424Y8329147I41J-1499998D01*
G01*
X275852520Y7191172D02*
X275852520Y-83401184D01*
X47084459Y-85401172D02*
X219622487Y-85401172D01*
X121922667Y8329124D02*
G75*
G02*
X116203375Y8329124I-2859646J1320952D01*
G01*
X40002489Y-84529801D02*
G75*
G02*
X45722551Y-84529801I2860031J-1320121D01*
G01*
X-7147480Y9200098D02*
X24353659Y9200098D01*
X-9147480Y7200116D02*
X-9147480Y-83414940D01*
X31434667Y8329124D02*
G75*
G02*
X25715375Y8329124I-2859646J1320952D01*
G01*
X-9147480Y7200116D02*
G75*
G02*
X-7147480Y9200098I2000012J-30D01*
G01*
X242346459Y9200098D02*
X273852559Y9200098D01*
X220977489Y-84529801D02*
G75*
G02*
X219622487Y-85401144I-1361889J628601D01*
G01*
X121922667Y8329124D02*
G75*
G02*
X123284459Y9200129I1361833J-629124D01*
G01*
X233903659Y9200098D02*
G75*
G02*
X235265424Y8329147I41J-1499998D01*
G01*
X47084459Y-85401172D02*
G75*
G02*
X45722590Y-84529783I41J1499972D01*
G01*
X-7147441Y-85401172D02*
G75*
G02*
X-9147480Y-83414940I100J2000188D01*
G01*
X240984667Y8329124D02*
G75*
G02*
X235265373Y8329124I-2859647J1320953D01*
G01*
X220977489Y-84529801D02*
G75*
G02*
X226697553Y-84529801I2860032J-1320121D01*
G01*
X-7147441Y-85401172D02*
X38647487Y-85401172D01*
X273852559Y9200098D02*
G75*
G02*
X275852578Y7191172I41J-1999998D01*
G01*
X40002489Y-84529801D02*
G75*
G02*
X38647487Y-85401144I-1361889J628601D01*
G01*
X228059459Y-85401172D02*
G75*
G02*
X226697590Y-84529783I41J1499972D01*
G01*
X31434667Y8329124D02*
G75*
G02*
X32796459Y9200129I1361833J-629124D01*
G01*
X240984667Y8329124D02*
G75*
G02*
X242346459Y9200129I1361833J-629124D01*
G01*
X32796459Y9200098D02*
X114841659Y9200098D01*
X114841659Y9200098D02*
G75*
G02*
X116203424Y8329147I41J-1499998D01*
G01*
X228059459Y-85401172D02*
X273852520Y-85401172D01*
X275852520Y-83401184D02*
G75*
G02*
X273852520Y-85401220I-2000020J-16D01*
G01*
X123284459Y9200098D02*
X233903659Y9200098D01*
M02*
